# xmcd CD database file
#
# Track frame offsets:
#	150
#	43436
#	72318
#	111319
#	135082
#	178685
#
# Disc length: 2772 seconds
#
# Revision: 0
# Processed by: cddbd v1.5.2PL0 Copyright (c) Steve Scherf et al.
# Submitted via: CDex 1.70beta2
#
DISCID=540ad206
DTITLE=Stefan Heidtmann Project - Omorfiá
DYEAR=2010
DGENRE=Jazz
TTITLE0=unconsciousness
TTITLE1=omorfiá
TTITLE2=pink
TTITLE3=la comète
TTITLE4=fra diavolo
TTITLE5=monticello
EXTD=YEAR: 2010
EXTT0=
EXTT1=
EXTT2=
EXTT3=
EXTT4=
EXTT5=
PLAYORDER=
